<svg width="25" height="25" viewBox="0 0 25 25" fill="none" xmlns="http://www.w3.org/2000/svg">
<g filter="url(#filter0_i_2018_431)">
<path d="M0 12.5C0 5.59644 5.59644 0 12.5 0C19.4036 0 25 5.59644 25 12.5C25 19.4036 19.4036 25 12.5 25C5.59644 25 0 19.4036 0 12.5Z" fill="#E85433"/>
</g>
<path fill-rule="evenodd" clip-rule="evenodd" d="M12.5001 13.6494L15.3726 16.5219C15.525 16.6743 15.7317 16.7599 15.9473 16.7599C16.1628 16.7599 16.3696 16.6743 16.522 16.5219C16.6744 16.3695 16.76 16.1627 16.76 15.9472C16.76 15.7316 16.6744 15.5249 16.522 15.3725L13.6484 12.5L16.5214 9.62754C16.5969 9.55207 16.6567 9.46248 16.6975 9.36388C16.7383 9.26529 16.7593 9.15962 16.7593 9.05291C16.7593 8.9462 16.7382 8.84054 16.6974 8.74197C16.6565 8.64339 16.5966 8.55383 16.5212 8.47839C16.4457 8.40296 16.3561 8.34313 16.2575 8.30231C16.1589 8.2615 16.0533 8.24051 15.9465 8.24053C15.8398 8.24056 15.7342 8.2616 15.6356 8.30246C15.537 8.34332 15.4475 8.40319 15.372 8.47867L12.5001 11.3511L9.62765 8.47867C9.55274 8.40103 9.46311 8.33909 9.364 8.29646C9.2649 8.25383 9.15829 8.23137 9.05041 8.23038C8.94253 8.22939 8.83553 8.2499 8.73566 8.29071C8.63578 8.33151 8.54504 8.3918 8.46872 8.46805C8.39239 8.5443 8.33202 8.63499 8.29112 8.73483C8.25022 8.83466 8.22961 8.94164 8.2305 9.04952C8.23138 9.1574 8.25375 9.26403 8.29628 9.36318C8.33882 9.46233 8.40067 9.55201 8.47824 9.627L11.3518 12.5L8.47878 15.373C8.40121 15.448 8.33936 15.5377 8.29682 15.6368C8.25429 15.736 8.23192 15.8426 8.23104 15.9505C8.23015 16.0584 8.25076 16.1653 8.29166 16.2652C8.33256 16.365 8.39293 16.4557 8.46926 16.5319C8.54558 16.6082 8.63633 16.6685 8.7362 16.7093C8.83607 16.7501 8.94307 16.7706 9.05095 16.7696C9.15883 16.7686 9.26544 16.7462 9.36455 16.7035C9.46365 16.6609 9.55328 16.599 9.62819 16.5213L12.5001 13.6494Z" fill="white"/>
<defs>
<filter id="filter0_i_2018_431" x="0" y="0" width="25" height="25" filterUnits="userSpaceOnUse" color-interpolation-filters="sRGB">
<feFlood flood-opacity="0" result="BackgroundImageFix"/>
<feBlend mode="normal" in="SourceGraphic" in2="BackgroundImageFix" result="shape"/>
<feColorMatrix in="SourceAlpha" type="matrix" values="0 0 0 0 0 0 0 0 0 0 0 0 0 0 0 0 0 0 127 0" result="hardAlpha"/>
<feOffset/>
<feGaussianBlur stdDeviation="4"/>
<feComposite in2="hardAlpha" operator="arithmetic" k2="-1" k3="1"/>
<feColorMatrix type="matrix" values="0 0 0 0 1 0 0 0 0 1 0 0 0 0 1 0 0 0 0.2 0"/>
<feBlend mode="normal" in2="shape" result="effect1_innerShadow_2018_431"/>
</filter>
</defs>
</svg>
