<svg width="14" height="14" viewBox="0 0 14 14" fill="none" xmlns="http://www.w3.org/2000/svg">
<g opacity="0.5">
<path fill-rule="evenodd" clip-rule="evenodd" d="M0.125058 2.625C0.125058 2.21079 0.460845 1.875 0.875058 1.875H13.1251C13.5393 1.875 13.8751 2.21079 13.8751 2.625V12.25C13.8751 12.6642 13.5393 13 13.1251 13H0.875058C0.460845 13 0.125058 12.6642 0.125058 12.25V2.625ZM1.62506 3.375V11.5H12.3751V3.375H1.62506Z" fill="white"/>
<path fill-rule="evenodd" clip-rule="evenodd" d="M0.264758 3.06407C0.505515 2.72701 0.973927 2.64894 1.31099 2.8897L7.00006 6.95332L12.6891 2.8897C13.0262 2.64894 13.4946 2.72701 13.7354 3.06407C13.9761 3.40113 13.898 3.86954 13.561 4.1103L7.43599 8.4853C7.17521 8.67157 6.8249 8.67157 6.56413 8.4853L0.43913 4.1103C0.10207 3.86954 0.0240014 3.40113 0.264758 3.06407Z" fill="white"/>
</g>
</svg>
