<?xml version="1.0" encoding="UTF-8" standalone="no"?>
<!DOCTYPE svg PUBLIC "-//W3C//DTD SVG 1.1//EN" "http://www.w3.org/Graphics/SVG/1.1/DTD/svg11.dtd">
<svg width="100%" height="100%" viewBox="0 0 512 512" version="1.1" xmlns="http://www.w3.org/2000/svg" xmlns:xlink="http://www.w3.org/1999/xlink" xml:space="preserve" xmlns:serif="http://www.serif.com/" style="fill-rule:evenodd;clip-rule:evenodd;stroke-linejoin:round;stroke-miterlimit:2;fill:white;">
    <g transform="matrix(1,0,0,1,-1148,-558)">
        <g id="Artboard1" transform="matrix(0.256,0,0,0.256,1148,558)">
            <rect x="0" y="0" width="2000" height="2000" style="fill:none;"/>
            <clipPath id="_clip1">
                <rect x="0" y="0" width="2000" height="2000"/>
            </clipPath>
            <g clip-path="url(#_clip1)">
                <g transform="matrix(4.75059,0,0,4.75059,-13734,-370.546)">
                    <path d="M3312,141.15L3312,435.85C3312,470.703 3283.7,499 3248.85,499L2954.15,499C2919.3,499 2891,470.703 2891,435.85L2891,141.15C2891,106.297 2919.3,78 2954.15,78L3248.85,78C3283.7,78 3312,106.297 3312,141.15ZM2975.49,355.953L3051.17,280.277L2975.49,204.602C2974.57,206.327 2974.05,208.295 2974.05,210.385L2974.05,350.17C2974.05,352.26 2974.57,354.228 2975.49,355.953ZM3003.83,362.504L3199.17,362.504L3134.36,297.686L3101.47,330.577L3068.61,297.72L3003.83,362.504ZM3228.95,350.17L3228.95,210.385C3228.95,208.276 3228.42,206.292 3227.49,204.556L3151.8,280.244L3227.51,355.953C3228.43,354.228 3228.95,352.26 3228.95,350.17ZM3199.11,198.051L3003.83,198.051L3101.47,295.691L3199.11,198.051Z"/>
                </g>
            </g>
        </g>
    </g>
</svg>
