<svg width="32" height="32" viewBox="0 0 32 32" fill="none" xmlns="http://www.w3.org/2000/svg">
<path d="M26.901 15.6778C26.901 11.7413 24.8155 8.2849 21.6953 6.35968C21.2715 7.05296 20.8476 7.74657 20.4238 8.43986C22.8474 9.93545 24.4671 12.6203 24.4671 15.6778C24.4671 18.7353 22.8474 21.4201 20.4238 22.9157C20.8476 23.6097 21.2715 24.3026 21.6953 24.9966C24.8155 23.07 26.901 19.6143 26.901 15.6778Z" fill="#EDF9FF"/>
<path d="M11.5763 8.43986C11.1525 7.74592 10.7283 7.05296 10.3049 6.35968C7.18464 8.2849 5.09912 11.7413 5.09912 15.6778C5.09912 19.6143 7.18464 23.0707 10.3049 24.9966C10.7283 24.3033 11.1528 23.6097 11.5763 22.9157C9.15276 21.4201 7.53298 18.7353 7.53298 15.6778C7.53298 12.6203 9.15276 9.93545 11.5763 8.43986Z" fill="#EDF9FF"/>
<path d="M24.36 2C23.9358 2.69393 23.5117 3.38754 23.0882 4.08148C26.9709 6.4774 29.566 10.7791 29.566 15.6778C29.566 20.5767 26.9709 24.8778 23.0879 27.2744C23.5117 27.9686 23.9358 28.6619 24.3597 29.3565C28.9393 26.5293 31.9999 21.4557 31.9999 15.6778C31.9999 9.90016 28.9393 4.8262 24.36 2Z" fill="#EDF9FF"/>
<path d="M2.43354 15.6778C2.43354 10.7789 5.02898 6.47747 8.91232 4.08122C8.48786 3.38761 8.06405 2.69367 7.64024 2.00006C3.06022 4.82626 0 9.90023 0 15.6778C0 21.4554 3.06022 26.53 7.64024 29.3562C8.06405 28.6626 8.48786 27.9687 8.91232 27.2751C5.02898 24.8782 2.43354 20.5768 2.43354 15.6778Z" fill="#EDF9FF"/>
<path d="M22.0553 15.6779C22.0553 19.0324 19.3447 21.7512 16.0003 21.7512C12.6562 21.7512 9.94531 19.0324 9.94531 15.6779C9.94531 12.3241 12.6562 9.60461 16.0003 9.60461C19.3447 9.60461 22.0553 12.3241 22.0553 15.6779Z" fill="#EDF9FF"/>
</svg>
