<svg width="70" height="70" viewBox="0 0 70 70" fill="none" xmlns="http://www.w3.org/2000/svg">
<g filter="url(#filter0_i_2038_2)">
<path d="M0 35C0 15.67 15.67 0 35 0C54.33 0 70 15.67 70 35C70 54.33 54.33 70 35 70C15.67 70 0 54.33 0 35Z" fill="#E85433"/>
</g>
<g clip-path="url(#clip0_2038_2)">
<path d="M47.7845 26.1115H47.092C47.3047 25.5425 47.4188 24.9413 47.4293 24.3339C47.3921 22.888 46.7848 21.5155 45.7402 20.5164C44.6955 19.5172 43.2984 18.9724 41.8539 19.0011C40.4343 19.0318 39.0492 19.444 37.8433 20.1945C36.6375 20.9451 35.6555 22.0064 35 23.2673C34.3445 22.0064 33.3625 20.9451 32.1567 20.1945C30.9509 19.444 29.5657 19.0318 28.1461 19.0011C26.7016 18.9724 25.3045 19.5172 24.2598 20.5164C23.2152 21.5155 22.6079 22.888 22.5707 24.3339C22.5812 24.9413 22.6953 25.5425 22.908 26.1115H22.2155C21.7483 26.1559 21.2945 26.2926 20.8803 26.5137C20.4662 26.7348 20.0999 27.0358 19.8027 27.3995C19.5055 27.7631 19.2833 28.1822 19.1488 28.6323C19.0144 29.0825 18.9704 29.5549 19.0194 30.0222V36.4216C18.9365 37.2824 19.1575 38.145 19.6442 38.8595C20.1308 39.574 20.8522 40.0952 21.6829 40.3323V48.1004C21.7377 48.9067 22.1038 49.66 22.7036 50.2008C23.3035 50.7416 24.09 51.0275 24.8967 50.9979H45.1033C45.9216 51.0269 46.7183 50.7312 47.3201 50.1754C47.9219 49.6195 48.2802 48.8482 48.3171 48.0293V40.3323C49.1478 40.0952 49.8692 39.574 50.3558 38.8595C50.8425 38.145 51.0635 37.2824 50.9806 36.4216V30.0222C51.0296 29.5549 50.9856 29.0825 50.8512 28.6323C50.7167 28.1822 50.4945 27.7631 50.1973 27.3995C49.9001 27.0358 49.5338 26.7348 49.1197 26.5137C48.7055 26.2926 48.2517 26.1559 47.7845 26.1115ZM47.4293 30.0222V36.4216C47.4492 36.5392 47.4492 36.6594 47.4293 36.7771H36.7756V29.6667H47.4293C47.4492 29.7844 47.4492 29.9045 47.4293 30.0222ZM41.8539 22.5563C42.3569 22.5269 42.8512 22.697 43.23 23.0296C43.6088 23.3622 43.8416 23.8308 43.8781 24.3339C43.8416 24.837 43.6088 25.3055 43.23 25.6382C42.8512 25.9708 42.3569 26.1408 41.8539 26.1115H37.4859C37.7966 25.1618 38.3736 24.3217 39.1481 23.6913C39.9226 23.061 40.8619 22.6669 41.8539 22.5563ZM26.1219 24.3339C26.1584 23.8308 26.3912 23.3622 26.77 23.0296C27.1488 22.697 27.6431 22.5269 28.1461 22.5563C29.135 22.6702 30.0705 23.0656 30.8415 23.6958C31.6126 24.326 32.187 25.1644 32.4964 26.1115H28.1461C27.6431 26.1408 27.1488 25.9708 26.77 25.6382C26.3912 25.3055 26.1584 24.837 26.1219 24.3339ZM22.5707 30.0222C22.5508 29.9045 22.5508 29.7844 22.5707 29.6667H33.2244V36.7771H22.5707C22.5508 36.6594 22.5508 36.5392 22.5707 36.4216V30.0222ZM25.2341 40.3323H33.2244V47.4427H25.2341V40.3323ZM36.7756 47.4427V40.3323H44.7659V47.4427H36.7756Z" fill="white"/>
</g>
<defs>
<filter id="filter0_i_2038_2" x="0" y="0" width="70" height="70" filterUnits="userSpaceOnUse" color-interpolation-filters="sRGB">
<feFlood flood-opacity="0" result="BackgroundImageFix"/>
<feBlend mode="normal" in="SourceGraphic" in2="BackgroundImageFix" result="shape"/>
<feColorMatrix in="SourceAlpha" type="matrix" values="0 0 0 0 0 0 0 0 0 0 0 0 0 0 0 0 0 0 127 0" result="hardAlpha"/>
<feOffset/>
<feGaussianBlur stdDeviation="4"/>
<feComposite in2="hardAlpha" operator="arithmetic" k2="-1" k3="1"/>
<feColorMatrix type="matrix" values="0 0 0 0 1 0 0 0 0 1 0 0 0 0 1 0 0 0 0.2 0"/>
<feBlend mode="normal" in2="shape" result="effect1_innerShadow_2038_2"/>
</filter>
<clipPath id="clip0_2038_2">
<rect width="32" height="32" fill="white" transform="translate(19 19)"/>
</clipPath>
</defs>
</svg>
