<svg width="14" height="14" viewBox="0 0 14 14" fill="none" xmlns="http://www.w3.org/2000/svg">
<g clip-path="url(#clip0_32_1202)">
<path d="M6.53405 0.178143C6.66247 0.0633826 6.82825 0 7 0C7.17175 0 7.33753 0.0633826 7.46595 0.178143L13.7816 5.82748C13.9136 5.95369 13.9917 6.12659 13.9994 6.30967C14.0071 6.49275 13.9437 6.67166 13.8227 6.80862C13.7018 6.94557 13.5326 7.02985 13.3511 7.04363C13.1695 7.05742 12.9897 6.99964 12.8497 6.8825L12.6139 6.67277V12.0043C12.6139 12.3789 12.466 12.7381 12.2028 13.003C11.9396 13.2679 11.5826 13.4167 11.2104 13.4167H2.78959C2.41736 13.4167 2.06038 13.2679 1.79718 13.003C1.53398 12.7381 1.38612 12.3789 1.38612 12.0043V6.67277L1.15033 6.8825C1.01031 6.99964 0.830518 7.05742 0.648943 7.04363C0.467367 7.02985 0.298227 6.94557 0.177253 6.80862C0.0562778 6.67166 -0.00705775 6.49275 0.00062556 6.30967C0.00830887 6.12659 0.0864093 5.95369 0.218428 5.82748L6.53405 0.178143ZM2.78959 5.41579V12.0043H4.89479V8.47349C4.89479 8.28621 4.96873 8.10659 5.10033 7.97416C5.23193 7.84173 5.41042 7.76733 5.59653 7.76733H8.40347C8.58958 7.76733 8.76807 7.84173 8.89967 7.97416C9.03127 8.10659 9.10521 8.28621 9.10521 8.47349V12.0043H11.2104V5.41649L7 1.6505L2.78959 5.41579ZM7.70174 12.0043V9.17966H6.29826V12.0043H7.70174Z" fill="#274C77"/>
</g>
<defs>
<clipPath id="clip0_32_1202">
<rect width="14" height="14" fill="white"/>
</clipPath>
</defs>
</svg>
