<svg width="20" height="20" viewBox="0 0 20 20" fill="none" xmlns="http://www.w3.org/2000/svg">
<path d="M11.625 4.625H12.5859L11.625 3.66406V4.625ZM15.375 7.5H13.375V6.625H10.625C10.0727 6.625 9.625 6.17728 9.625 5.625V2.875H4.125V17.125H13.375V16.875H15.375V18.125C15.375 18.6773 14.9273 19.125 14.375 19.125H3.125C2.57272 19.125 2.125 18.6773 2.125 18.125V1.875C2.125 1.32272 2.57272 0.875 3.125 0.875H11.25L11.3486 0.879883C11.5776 0.902573 11.7929 1.00383 11.957 1.16797L15.082 4.29297C15.2696 4.48051 15.375 4.73478 15.375 5V7.5Z" fill="white"/>
</svg>
