<svg width="14" height="14" viewBox="0 0 14 14" fill="none" xmlns="http://www.w3.org/2000/svg">
<g clip-path="url(#clip0_24_1083)">
<path d="M7.70439 7.70778C7.51607 7.88967 7.26385 7.99031 7.00204 7.98804C6.74023 7.98576 6.4898 7.88075 6.30466 7.69562C6.11953 7.51048 6.01452 7.26005 6.01224 6.99824C6.00997 6.73643 6.11061 6.48421 6.2925 6.29589L12.2836 0.304833C12.3757 0.209465 12.4858 0.133397 12.6077 0.0810658C12.7295 0.028735 12.8605 0.0011898 12.9931 3.77004e-05C13.1257 -0.0011144 13.2572 0.0241496 13.3799 0.0743555C13.5026 0.124561 13.6141 0.198704 13.7078 0.292457C13.8016 0.386209 13.8757 0.497695 13.9259 0.620408C13.9761 0.743121 14.0014 0.874604 14.0002 1.00719C13.9991 1.13977 13.9715 1.27079 13.9192 1.39261C13.8669 1.51444 13.7908 1.62462 13.6954 1.71672L7.70439 7.70778Z" fill="#3369E8"/>
<path d="M11.9909 11.9944V8.4996C11.9909 8.23478 12.0961 7.9808 12.2834 7.79354C12.4706 7.60629 12.7246 7.50109 12.9894 7.50109C13.2542 7.50109 13.5082 7.60629 13.6955 7.79354C13.8827 7.9808 13.9879 8.23478 13.9879 8.4996V12.9929C13.9879 13.2577 13.8827 13.5117 13.6955 13.6989C13.5082 13.8862 13.2542 13.9914 12.9894 13.9914H1.0073C0.742477 13.9914 0.488502 13.8862 0.301246 13.6989C0.113989 13.5117 0.00878906 13.2577 0.00878906 12.9929V1.01078C0.00878906 0.745956 0.113989 0.491981 0.301246 0.304725C0.488502 0.117468 0.742477 0.0122681 1.0073 0.0122681H5.50059C5.76541 0.0122681 6.01939 0.117468 6.20664 0.304725C6.3939 0.491981 6.4991 0.745956 6.4991 1.01078C6.4991 1.2756 6.3939 1.52957 6.20664 1.71683C6.01939 1.90409 5.76541 2.00929 5.50059 2.00929H2.00581V11.9944H11.9909ZM13.9879 5.00481C13.9879 5.26964 13.8827 5.52361 13.6955 5.71087C13.5082 5.89812 13.2542 6.00332 12.9894 6.00332C12.7246 6.00332 12.4706 5.89812 12.2834 5.71087C12.0961 5.52361 11.9909 5.26964 11.9909 5.00481V1.01078C11.9909 0.745956 12.0961 0.491981 12.2834 0.304725C12.4706 0.117468 12.7246 0.0122681 12.9894 0.0122681C13.2542 0.0122681 13.5082 0.117468 13.6955 0.304725C13.8827 0.491981 13.9879 0.745956 13.9879 1.01078V5.00481Z" fill="#3369E8"/>
<path d="M8.99558 2.00929C8.73076 2.00929 8.47678 1.90409 8.28953 1.71683C8.10227 1.52957 7.99707 1.2756 7.99707 1.01078C7.99707 0.745956 8.10227 0.491981 8.28953 0.304725C8.47678 0.117468 8.73076 0.0122681 8.99558 0.0122681H12.9896C13.2544 0.0122681 13.5084 0.117468 13.6957 0.304725C13.8829 0.491981 13.9881 0.745956 13.9881 1.01078C13.9881 1.2756 13.8829 1.52957 13.6957 1.71683C13.5084 1.90409 13.2544 2.00929 12.9896 2.00929H8.99558Z" fill="#3369E8"/>
</g>
<defs>
<clipPath id="clip0_24_1083">
<rect width="14" height="14" fill="white"/>
</clipPath>
</defs>
</svg>
