<svg width="36" height="30" viewBox="0 0 36 30" fill="none" xmlns="http://www.w3.org/2000/svg">
<g clip-path="url(#clip0_82_1041)">
<path d="M30.2557 15.1179C30.2557 10.7722 27.9022 6.95647 24.3811 4.83111C23.9028 5.59647 23.4246 6.36218 22.9463 7.12754C25.6812 8.77861 27.5091 11.7425 27.5091 15.1179C27.5091 18.4933 25.6812 21.4572 22.9463 23.1083C23.4246 23.8743 23.9028 24.6393 24.3811 25.4054C27.9022 23.2786 30.2557 19.4636 30.2557 15.1179Z" fill="#274C77"/>
<path d="M12.9618 7.12748C12.4835 6.3614 12.0049 5.59641 11.527 4.83105C8.00583 6.95641 5.65234 10.7721 5.65234 15.1178C5.65234 19.4635 8.00583 23.2793 11.527 25.4053C12.0049 24.64 12.4839 23.8743 12.9618 23.1082C10.2268 21.4571 8.39892 18.4932 8.39892 15.1178C8.39892 11.7425 10.2268 8.77855 12.9618 7.12748Z" fill="#274C77"/>
<path d="M27.3887 0.0181522C26.91 0.784224 26.4314 1.54994 25.9535 2.31601C30.3351 4.96101 33.2636 9.70994 33.2636 15.1178C33.2636 20.526 30.3351 25.2742 25.9531 27.9199C26.4314 28.6864 26.91 29.4517 27.3883 30.2185C32.5564 27.0974 36.0102 21.4964 36.0102 15.1178C36.0102 8.73958 32.5564 3.13815 27.3887 0.0181522Z" fill="#274C77"/>
<path d="M2.64465 15.1177C2.64465 9.70945 5.57359 4.96087 9.95588 2.31552C9.47689 1.5498 8.99862 0.783731 8.52035 0.0180168C3.35186 3.13802 -0.101562 8.73945 -0.101562 15.1177C-0.101562 21.4959 3.35186 27.098 8.52035 30.218C8.99862 29.4523 9.47689 28.6862 9.95588 27.9205C5.57359 25.2744 2.64465 20.5259 2.64465 15.1177Z" fill="#274C77"/>
<path d="M24.787 15.1179C24.787 18.8211 21.7281 21.8225 17.9541 21.8225C14.1803 21.8225 11.1211 18.8211 11.1211 15.1179C11.1211 11.4154 14.1803 8.41322 17.9541 8.41322C21.7281 8.41322 24.787 11.4154 24.787 15.1179Z" fill="#3369E8"/>
<mask id="mask0_82_1041" style="mask-type:luminance" maskUnits="userSpaceOnUse" x="11" y="9" width="13" height="10">
<path d="M11.7627 15.1178C11.7627 16.4314 12.1915 17.6428 12.9132 18.6364L23.5807 12.5936C22.6031 10.5 20.4545 9.0432 17.954 9.0432C14.5348 9.0432 11.7627 11.7628 11.7627 15.1178Z" fill="white"/>
</mask>
<g mask="url(#mask0_82_1041)">
<mask id="mask1_82_1041" style="mask-type:luminance" maskUnits="userSpaceOnUse" x="-12016" y="-11596" width="23855" height="23406">
<path d="M-12015 -11595.6H11838.3V11809.4H-12015V-11595.6Z" fill="url(#paint0_linear_82_1041)"/>
</mask>
<g mask="url(#mask1_82_1041)">
<path d="M11.7627 15.1181C11.7627 16.4317 12.1915 17.6431 12.9132 18.6367L23.5807 12.5939C22.6031 10.5003 20.4545 9.04351 17.954 9.04351C14.5348 9.04351 11.7627 11.7631 11.7627 15.1181Z" fill="url(#paint1_linear_82_1041)"/>
</g>
</g>
</g>
<defs>
<linearGradient id="paint0_linear_82_1041" x1="19.2681" y1="17.7976" x2="12.3206" y2="3.08963" gradientUnits="userSpaceOnUse">
<stop stop-color="white" stop-opacity="0"/>
<stop offset="1" stop-color="white"/>
</linearGradient>
<linearGradient id="paint1_linear_82_1041" x1="19.2672" y1="17.7964" x2="12.3198" y2="3.08839" gradientUnits="userSpaceOnUse">
<stop stop-color="white"/>
<stop offset="1" stop-color="white"/>
</linearGradient>
<clipPath id="clip0_82_1041">
<rect width="36" height="30" fill="white"/>
</clipPath>
</defs>
</svg>
