<svg width="40" height="40" viewBox="0 0 40 40" fill="none" xmlns="http://www.w3.org/2000/svg">
<g clip-path="url(#clip0_82_913)">
<path d="M20 40C31.0457 40 40 31.0457 40 20C40 8.9543 31.0457 0 20 0C8.9543 0 0 8.9543 0 20C0 31.0457 8.9543 40 20 40Z" fill="#FFD93B"/>
<path d="M20 33.1688C14.6275 33.1688 9.90627 29.7263 8.25252 24.6026C8.09377 24.1101 8.36377 23.5813 8.85627 23.4226C8.97338 23.3845 9.09686 23.3699 9.21963 23.3796C9.34239 23.3894 9.46202 23.4233 9.57165 23.4794C9.68128 23.5355 9.77876 23.6127 9.85849 23.7065C9.93822 23.8004 9.99864 23.9091 10.0363 24.0263C11.44 28.3726 15.4438 31.2938 20 31.2938C24.5563 31.2938 28.56 28.3738 29.9638 24.0263C30.0014 23.9091 30.0618 23.8004 30.1416 23.7065C30.2213 23.6127 30.3188 23.5355 30.4284 23.4794C30.538 23.4233 30.6577 23.3894 30.7804 23.3796C30.9032 23.3699 31.0267 23.3845 31.1438 23.4226C31.6363 23.5813 31.9063 24.1101 31.7475 24.6026C30.0938 29.7263 25.3725 33.1688 20 33.1688Z" fill="#3E4347"/>
<path d="M40.0004 20C40.0004 31.05 31.0441 40 20.0004 40C13.7129 40 8.10039 37.1 4.43164 32.5563C7.86289 35.3313 12.2316 36.9875 16.9879 36.9875C28.0316 36.9875 36.9879 28.0375 36.9879 16.9875C36.9879 12.2313 35.3316 7.86252 32.5566 4.43127C37.0941 8.10002 40.0004 13.7125 40.0004 20Z" fill="#F4C534"/>
<path d="M16.675 16.7324C15.735 15.4499 14.04 14.5974 12.1075 14.5974C10.1662 14.6062 8.47125 15.4587 7.53125 16.7412C7.575 14.2549 9.605 12.2524 12.1075 12.2524C14.5925 12.2524 16.6313 14.2462 16.675 16.7324ZM32.47 16.7324C31.53 15.4499 29.835 14.5974 27.9025 14.5974C25.9613 14.6062 24.2662 15.4587 23.3263 16.7412C23.37 14.2549 25.4 12.2524 27.9025 12.2524C30.3888 12.2524 32.4263 14.2462 32.47 16.7324Z" fill="#3E4347"/>
</g>
<defs>
<clipPath id="clip0_82_913">
<rect width="40" height="40" fill="white"/>
</clipPath>
</defs>
</svg>
