<svg width="40" height="40" viewBox="0 0 40 40" fill="none" xmlns="http://www.w3.org/2000/svg">
<g clip-path="url(#clip0_82_847)">
<path d="M20 40C31.0457 40 40 31.0457 40 20C40 8.9543 31.0457 0 20 0C8.9543 0 0 8.9543 0 20C0 31.0457 8.9543 40 20 40Z" fill="#FFD93B"/>
<path d="M40.0004 20C40.0004 31.05 31.0441 40 20.0004 40C13.7129 40 8.10039 37.1 4.43164 32.5563C7.86289 35.3313 12.2316 36.9875 16.9879 36.9875C28.0316 36.9875 36.9879 28.0375 36.9879 16.9875C36.9879 12.2313 35.3316 7.86252 32.5566 4.43127C37.0941 8.10002 40.0004 13.7125 40.0004 20Z" fill="#F4C534"/>
<path d="M27.7025 31.8112C26.7075 32.4112 24.03 29.7412 20.34 29.7087C16.7037 29.6762 13.9725 32.4124 12.9775 31.8112C11.7862 31.3262 13.8237 25.5137 20.34 25.4787C26.8562 25.5137 28.8937 31.3274 27.7025 31.8112ZM30.495 17.3062C30.495 19.0674 29.0537 20.5087 27.285 20.5087C25.515 20.5087 24.075 19.0674 24.075 17.3062C24.075 15.5287 25.5162 14.0962 27.285 14.0962C29.055 14.0962 30.495 15.5287 30.495 17.3062Z" fill="#3E4347"/>
<path d="M28.7542 15.4955C28.3596 15.1529 27.8628 15.0788 27.6447 15.3301C27.4265 15.5813 27.5696 16.0628 27.9642 16.4054C28.3588 16.748 28.8556 16.8221 29.0737 16.5708C29.2919 16.3196 29.1488 15.8381 28.7542 15.4955Z" fill="#5A5F63"/>
<path d="M15.9249 17.3062C15.9249 19.0674 14.4836 20.5087 12.7149 20.5087C10.9461 20.5087 9.50488 19.0674 9.50488 17.3062C9.50488 15.5287 10.9461 14.0962 12.7149 14.0962C14.4836 14.0962 15.9249 15.5287 15.9249 17.3062Z" fill="#3E4347"/>
<path d="M14.1829 15.4966C13.7883 15.154 13.2916 15.0799 13.0734 15.3312C12.8552 15.5824 12.9983 16.0639 13.3929 16.4065C13.7875 16.7491 14.2843 16.8232 14.5024 16.5719C14.7206 16.3206 14.5775 15.8392 14.1829 15.4966Z" fill="#5A5F63"/>
</g>
<defs>
<clipPath id="clip0_82_847">
<rect width="40" height="40" fill="white"/>
</clipPath>
</defs>
</svg>
