<svg width="40" height="40" viewBox="0 0 40 40" fill="none" xmlns="http://www.w3.org/2000/svg">
<g clip-path="url(#clip0_82_856)">
<path d="M20 40C31.0457 40 40 31.0457 40 20C40 8.9543 31.0457 0 20 0C8.9543 0 0 8.9543 0 20C0 31.0457 8.9543 40 20 40Z" fill="#FFD93B"/>
<path d="M39.9998 20C39.9998 31.05 31.0411 40 19.9998 40C13.7086 40 8.09984 37.1 4.43359 32.5587C7.85859 35.3337 12.2336 36.9925 16.9836 36.9925C28.0336 36.9925 36.9836 28.0425 36.9836 16.9925C36.9836 12.2337 35.3336 7.86747 32.5586 4.43372C37.0911 8.09997 39.9998 13.7162 39.9998 20Z" fill="#F4C534"/>
<path d="M17.3167 18.6662C17.3167 20.0662 16.1917 21.2075 14.783 21.2075C13.3742 21.2075 12.2417 20.0662 12.2417 18.6662C12.2417 18.4325 12.2755 18.2 12.333 17.9912H9.50797C8.99172 17.9912 8.57422 17.575 8.57422 17.0575C8.57422 16.54 8.99172 16.125 9.50922 16.125H14.7842C16.1917 16.125 17.3167 17.2587 17.3167 18.6662ZM31.4255 18.6662C31.4255 20.0662 30.3005 21.2075 28.8917 21.2075C27.4917 21.2075 26.3505 20.0662 26.3505 18.6662C26.3505 18.4325 26.3842 18.2 26.4417 17.9912H23.6167C23.1005 17.9912 22.683 17.575 22.683 17.0575C22.683 16.54 23.1005 16.125 23.6167 16.125H28.8917C30.3005 16.125 31.4255 17.2587 31.4255 18.6662Z" fill="#3E4347"/>
<path d="M17.1834 12.1588C17.5246 12.3925 17.6084 12.85 17.3746 13.1925C17.1496 13.5338 16.6834 13.6175 16.3409 13.3925C13.8321 11.6838 10.4071 12.3338 8.69963 14.8338C8.46838 15.1675 8.02338 15.2625 7.65838 15.0338C7.32463 14.8 7.23338 14.3338 7.46713 14C9.63338 10.8163 13.9909 9.99128 17.1834 12.1588ZM32.3334 15.0338C32.1693 15.1428 31.9689 15.1829 31.7755 15.1455C31.5821 15.1081 31.4112 14.9961 31.2996 14.8338C29.5909 12.3338 26.1659 11.6838 23.6584 13.3925C23.3171 13.6175 22.8496 13.5338 22.6246 13.1925C22.3909 12.8513 22.4746 12.3925 22.8159 12.1588C25.9996 9.99253 30.3659 10.8175 32.5321 14C32.7659 14.3338 32.6746 14.8 32.3334 15.0338Z" fill="#E9B02C"/>
<path d="M28.0915 31.1262C27.249 31.6162 24.3428 29.335 20.224 29.4587C16.104 29.3337 13.199 31.615 12.3565 31.1262C11.3253 30.74 13.6853 25.9175 20.224 25.9062C26.7628 25.9175 29.124 30.7412 28.0915 31.1262Z" fill="#3E4347"/>
</g>
<defs>
<clipPath id="clip0_82_856">
<rect width="40" height="40" fill="white"/>
</clipPath>
</defs>
</svg>
