<svg width="40" height="40" viewBox="0 0 40 40" fill="none" xmlns="http://www.w3.org/2000/svg">
<g clip-path="url(#clip0_82_920)">
<path d="M19.9999 39.9998C31.0456 39.9998 39.9998 31.0456 39.9998 19.9999C39.9998 8.95427 31.0456 0 19.9999 0C8.95427 0 0 8.95427 0 19.9999C0 31.0456 8.95427 39.9998 19.9999 39.9998Z" fill="#FFD93B"/>
<path d="M40.0002 20C40.0002 31.0499 31.044 39.9999 20.0003 39.9999C13.7129 39.9999 8.10038 37.0999 4.43164 32.5562C7.86288 35.3312 12.2316 36.9874 16.9878 36.9874C28.0315 36.9874 36.9878 28.0374 36.9878 16.9875C36.9878 12.2312 35.3315 7.86251 32.5565 4.43127C37.094 8.10001 40.0002 13.7125 40.0002 20Z" fill="#F4C534"/>
<path d="M25.5216 30.5436C25.5216 30.5436 26.2791 26.4536 24.4403 26.3761C23.4728 26.3349 22.7928 28.6561 22.2066 31.8661C21.5366 35.5374 23.3828 37.6124 24.9916 38.7886C27.3491 40.5124 29.8353 40.2011 32.2041 39.0711C35.1416 37.6699 37.5741 32.2586 37.6116 30.9299C37.6678 28.8736 36.0041 28.8336 33.7516 33.6724C34.0478 32.7599 36.3416 28.6549 36.8141 27.6936C37.3078 26.6874 35.9166 25.3599 34.9541 26.6274C33.9916 27.8949 31.1878 31.8661 30.9791 32.8386C31.1666 32.0861 35.0453 25.8811 35.2241 24.8274C35.4366 23.5686 33.6691 23.2511 33.0728 24.1461C32.6378 24.7986 28.5278 31.6149 28.5278 31.6149C28.5278 31.6149 31.9066 25.9899 31.7378 24.8949C31.5978 23.9874 30.4378 23.8174 29.8841 24.3924C29.2691 25.0286 25.5216 30.5436 25.5216 30.5436Z" fill="white"/>
<path d="M22.7188 36.2111C23.2975 37.3611 24.1737 38.1911 24.99 38.7886C27.3475 40.5123 29.8337 40.2011 32.2025 39.0711C35.14 37.6698 37.5738 32.2586 37.61 30.9286C37.61 30.9286 32.5188 43.5311 22.7188 36.2111Z" fill="#DEE4E9"/>
<path d="M14.4791 30.5436C14.4791 30.5436 13.7216 26.4536 15.5603 26.3761C16.5278 26.3349 17.2078 28.6561 17.7941 31.8661C18.4641 35.5374 16.6178 37.6124 15.0091 38.7886C12.6516 40.5124 10.1653 40.2011 7.79658 39.0711C4.85908 37.6699 2.42658 32.2586 2.38908 30.9299C2.33283 28.8736 3.99658 28.8336 6.24908 33.6724C5.95283 32.7599 3.65908 28.6549 3.18658 27.6936C2.69158 26.6874 4.08283 25.3599 5.04658 26.6274C6.01033 27.8949 8.81283 31.8661 9.02158 32.8386C8.83408 32.0861 4.95533 25.8811 4.77658 24.8274C4.56408 23.5686 6.33158 23.2511 6.92783 24.1461C7.36283 24.7986 11.4728 31.6149 11.4728 31.6149C11.4728 31.6149 8.09408 25.9899 8.26283 24.8949C8.40283 23.9874 9.56283 23.8174 10.1166 24.3924C10.7316 25.0286 14.4791 30.5436 14.4791 30.5436Z" fill="white"/>
<path d="M17.2799 36.2111C16.7012 37.3611 15.8249 38.1911 15.0087 38.7886C12.6512 40.5123 10.1649 40.2011 7.79617 39.0711C4.85867 37.6698 2.42617 32.2586 2.38867 30.9286C2.38992 30.9286 7.48117 43.5311 17.2799 36.2111Z" fill="#DEE4E9"/>
<path d="M27.4538 17.63C28.3513 17.8312 26.6988 24.3887 20.0001 24.3937C13.3001 24.3887 11.6476 17.8312 12.5463 17.63C13.2026 17.2787 15.7301 20.43 20.0001 20.43C24.3513 20.43 26.7975 17.2787 27.4538 17.63ZM16.7401 14.5525C16.2613 14.5525 15.8526 14.1875 15.8076 13.7013C15.6638 12.14 14.4738 10.9625 13.0401 10.9625C11.6064 10.9625 10.4164 12.14 10.2726 13.7013C10.2251 14.2163 9.76511 14.6 9.25386 14.5488C8.73761 14.5013 8.35887 14.045 8.40637 13.53C8.64011 10.9975 10.6314 9.08752 13.0413 9.08752C15.4501 9.08752 17.4426 10.9975 17.6751 13.53C17.7226 14.045 17.3426 14.5025 16.8276 14.5488C16.7976 14.5513 16.7688 14.5525 16.7401 14.5525ZM30.66 14.5525C30.1813 14.5525 29.7725 14.1875 29.7275 13.7013C29.5838 12.14 28.3938 10.9625 26.96 10.9625C25.5263 10.9625 24.3363 12.14 24.1926 13.7013C24.1463 14.2163 23.6901 14.6 23.1738 14.5488C22.6576 14.5013 22.2788 14.045 22.3263 13.53C22.5588 10.9975 24.5513 9.08752 26.96 9.08752C29.3688 9.08752 31.3613 10.9975 31.5938 13.53C31.6413 14.045 31.2613 14.5025 30.7463 14.5488C30.7175 14.5513 30.6888 14.5525 30.66 14.5525Z" fill="#3E4347"/>
</g>
<defs>
<clipPath id="clip0_82_920">
<rect width="40" height="40" fill="white"/>
</clipPath>
</defs>
</svg>
