<svg width="40" height="40" viewBox="0 0 40 40" fill="none" xmlns="http://www.w3.org/2000/svg">
<g clip-path="url(#clip0_82_883)">
<path d="M20 40C31.0457 40 40 31.0457 40 20C40 8.9543 31.0457 0 20 0C8.9543 0 0 8.9543 0 20C0 31.0457 8.9543 40 20 40Z" fill="#FFD93B"/>
<path d="M40.0004 20C40.0004 31.05 31.0441 40 20.0004 40C13.7129 40 8.10039 37.1 4.43164 32.5563C7.86289 35.3313 12.2316 36.9875 16.9879 36.9875C28.0316 36.9875 36.9879 28.0375 36.9879 16.9875C36.9879 12.2313 35.3316 7.86252 32.5566 4.43127C37.0941 8.10002 40.0004 13.7125 40.0004 20Z" fill="#F4C534"/>
<path d="M28.9501 26.9062C28.9501 27.5075 28.4638 27.9937 27.8626 27.9937H12.1363C11.5413 27.9937 11.0488 27.5075 11.0488 26.9062C11.0488 26.305 11.5413 25.8187 12.1363 25.8187H27.8626C28.4651 25.82 28.9501 26.305 28.9501 26.9062Z" fill="#3E4347"/>
<path d="M13.6333 19.1587C15.2791 19.1587 16.6133 17.8245 16.6133 16.1787C16.6133 14.5329 15.2791 13.1987 13.6333 13.1987C11.9875 13.1987 10.6533 14.5329 10.6533 16.1787C10.6533 17.8245 11.9875 19.1587 13.6333 19.1587Z" fill="#3E4347"/>
<path d="M15.3012 14.6587C15.0432 14.312 14.6523 14.1662 14.4279 14.3331C14.2036 14.5 14.2309 14.9164 14.4889 15.2631C14.7469 15.6098 15.1379 15.7556 15.3622 15.5887C15.5865 15.4217 15.5592 15.0054 15.3012 14.6587Z" fill="#5A5F63"/>
<path d="M26.3628 19.1587C28.0086 19.1587 29.3428 17.8245 29.3428 16.1787C29.3428 14.5329 28.0086 13.1987 26.3628 13.1987C24.717 13.1987 23.3828 14.5329 23.3828 16.1787C23.3828 17.8245 24.717 19.1587 26.3628 19.1587Z" fill="#3E4347"/>
<path d="M28.0306 14.6627C27.7726 14.316 27.3816 14.1703 27.1573 14.3372C26.933 14.5041 26.9604 14.9205 27.2184 15.2672C27.4764 15.6138 27.8674 15.7596 28.0917 15.5927C28.316 15.4257 28.2886 15.0094 28.0306 14.6627Z" fill="#5A5F63"/>
</g>
<defs>
<clipPath id="clip0_82_883">
<rect width="40" height="40" fill="white"/>
</clipPath>
</defs>
</svg>
