<svg width="40" height="40" viewBox="0 0 40 40" fill="none" xmlns="http://www.w3.org/2000/svg">
<g clip-path="url(#clip0_82_864)">
<path d="M20 40C31.0457 40 40 31.0457 40 20C40 8.9543 31.0457 0 20 0C8.9543 0 0 8.9543 0 20C0 31.0457 8.9543 40 20 40Z" fill="#FFD93B"/>
<path d="M40.0004 20C40.0004 31.05 31.0441 40 20.0004 40C13.7129 40 8.10039 37.1 4.43164 32.5563C7.86289 35.3313 12.2316 36.9875 16.9879 36.9875C28.0316 36.9875 36.9879 28.0375 36.9879 16.9875C36.9879 12.2313 35.3316 7.86252 32.5566 4.43127C37.0941 8.10002 40.0004 13.7125 40.0004 20Z" fill="#F4C534"/>
<path d="M25.9712 30.0625C25.9712 30.6462 25.505 31.1037 24.93 31.1037H15.0712C14.4962 31.1037 14.03 30.645 14.03 30.0625C14.03 29.4875 14.4962 29.0212 15.0712 29.0212H24.93C25.5037 29.0212 25.9712 29.4875 25.9712 30.0625ZM8.73495 20.4437C9.2237 20.1562 10.67 21.7062 12.9412 21.7912C15.2925 21.8787 16.6587 20.1562 17.1475 20.4437C17.7562 20.6525 16.9262 24.6275 12.9412 24.6425C8.95745 24.6275 8.1262 20.6525 8.73495 20.4437Z" fill="#3E4347"/>
<path d="M7.79753 18.6962C7.34378 18.6237 7.03378 18.1962 7.10753 17.7412C7.18128 17.2875 7.60128 16.9762 8.06253 17.0512C12.7475 17.8037 14.1713 14.4575 14.185 14.4237C14.3575 13.9975 14.8425 13.7925 15.2713 13.9663C15.6975 14.14 15.9025 14.6262 15.7288 15.0525C14.7888 17.355 11.8363 19.345 7.79753 18.6962Z" fill="#E9B02C"/>
<path d="M31.2647 20.4437C30.776 20.1562 29.3298 21.7062 27.0585 21.7912C24.7073 21.8787 23.341 20.1562 22.8523 20.4437C22.2435 20.6525 23.0735 24.6275 27.0585 24.6425C31.0422 24.6275 31.8735 20.6525 31.2647 20.4437Z" fill="#3E4347"/>
<path d="M24.2708 15.0513C24.0971 14.625 24.3021 14.1388 24.7283 13.965C25.1533 13.7913 25.6383 13.995 25.8133 14.4188C25.8758 14.5688 27.3071 17.795 31.9371 17.0513C32.3958 16.9763 32.8196 17.2875 32.8921 17.7413C32.9646 18.1963 32.6558 18.6238 32.2021 18.6963C28.1921 19.3413 25.2183 17.375 24.2708 15.0513Z" fill="#E9B02C"/>
</g>
<defs>
<clipPath id="clip0_82_864">
<rect width="40" height="40" fill="white"/>
</clipPath>
</defs>
</svg>
