<svg width="40" height="40" viewBox="0 0 40 40" fill="none" xmlns="http://www.w3.org/2000/svg">
<g clip-path="url(#clip0_82_873)">
<path d="M20 40C31.0457 40 40 31.0457 40 20C40 8.9543 31.0457 0 20 0C8.9543 0 0 8.9543 0 20C0 31.0457 8.9543 40 20 40Z" fill="#FFD93B"/>
<path d="M40.0004 20C40.0004 31.05 31.0441 40 20.0004 40C13.7129 40 8.10039 37.1 4.43164 32.5563C7.86289 35.3313 12.2316 36.9875 16.9879 36.9875C28.0316 36.9875 36.9879 28.0375 36.9879 16.9875C36.9879 12.2313 35.3316 7.86252 32.5566 4.43127C37.0941 8.10002 40.0004 13.7125 40.0004 20Z" fill="#F4C534"/>
<path d="M13.3489 31.5812C12.7751 31.1975 12.6214 30.4212 13.0051 29.8475C15.9001 25.5225 20.3676 25.5225 26.5514 25.5225C27.2414 25.5225 27.8014 26.0825 27.8014 26.7725C27.8014 27.4625 27.2414 28.0225 26.5514 28.0225C20.2601 28.0225 17.1439 28.1587 15.0826 31.2387C14.6964 31.8137 13.9201 31.9625 13.3489 31.5812Z" fill="#3E4347"/>
<path d="M12.7505 19.9038C14.5219 19.9038 15.958 18.4677 15.958 16.6963C15.958 14.9248 14.5219 13.4888 12.7505 13.4888C10.979 13.4888 9.54297 14.9248 9.54297 16.6963C9.54297 18.4677 10.979 19.9038 12.7505 19.9038Z" fill="#3E4347"/>
<path d="M14.5642 16.1388C14.3417 16.3488 13.9217 16.2725 13.653 15.9738C13.3755 15.6763 13.328 15.2538 13.5617 15.05C13.793 14.8375 14.203 14.9075 14.4805 15.2063C14.7592 15.5125 14.7955 15.9275 14.5642 16.1388Z" fill="#5A5F63"/>
<path d="M27.2554 19.9038C29.0268 19.9038 30.4629 18.4677 30.4629 16.6963C30.4629 14.9248 29.0268 13.4888 27.2554 13.4888C25.4839 13.4888 24.0479 14.9248 24.0479 16.6963C24.0479 18.4677 25.4839 19.9038 27.2554 19.9038Z" fill="#3E4347"/>
<path d="M29.0691 16.1388C28.8466 16.3488 28.4266 16.2725 28.1579 15.9738C27.8804 15.6763 27.8329 15.2538 28.0666 15.05C28.2979 14.8375 28.7079 14.9075 28.9854 15.2063C29.2641 15.5125 29.3004 15.9275 29.0691 16.1388Z" fill="#5A5F63"/>
</g>
<defs>
<clipPath id="clip0_82_873">
<rect width="40" height="40" fill="white"/>
</clipPath>
</defs>
</svg>
