<svg width="40" height="40" viewBox="0 0 40 40" fill="none" xmlns="http://www.w3.org/2000/svg">
<g clip-path="url(#clip0_82_841)">
<path d="M19.985 39.9756C31.0224 39.9756 39.97 31.028 39.97 19.9906C39.97 8.95321 31.0224 0.00561523 19.985 0.00561523C8.94759 0.00561523 0 8.95321 0 19.9906C0 31.028 8.94759 39.9756 19.985 39.9756Z" fill="#FFD93B"/>
<path d="M40.0001 20.0094C40.0001 31.0511 31.0506 39.9944 20.0151 39.9944C13.7323 39.9944 8.12401 37.0965 4.45801 32.5562C7.88669 35.3291 12.2522 36.9841 17.0048 36.9841C28.0403 36.9841 36.9899 28.0408 36.9899 16.9991C36.9899 12.2464 35.3349 7.88095 32.5619 4.45227C37.0973 8.11827 40.0001 13.7266 40.0001 20.0094Z" fill="#F4C534"/>
<path d="M6.76359 20.3891C6.71738 19.7009 7.23824 19.1063 7.92647 19.0601C9.80631 18.9339 11.6037 18.3756 13.3674 17.3639C11.0966 16.7019 9.94871 15.7288 9.88376 15.6726C9.36165 15.2217 9.30544 14.4323 9.7576 13.9115C10.2085 13.3894 10.9967 13.3319 11.52 13.7841C11.5275 13.7903 13.2025 15.1543 16.6424 15.4241C17.1508 15.464 17.583 15.81 17.7354 16.2959C17.8878 16.7818 17.7304 17.3127 17.3357 17.6349C14.4278 20.0181 11.3189 21.3371 8.0951 21.5532C7.33941 21.5845 6.80606 21.0349 6.76359 20.3891ZM31.9072 21.5532C28.6834 21.3371 25.5745 20.0181 22.6654 17.6349C22.4728 17.4771 22.3319 17.2652 22.2607 17.0266C22.1894 16.788 22.1912 16.5335 22.2657 16.2959C22.3401 16.0581 22.4839 15.848 22.6787 15.6926C22.8735 15.5373 23.1103 15.4437 23.3587 15.4241C26.7973 15.153 28.4748 13.7891 28.4911 13.7753C29.0169 13.3394 29.8026 13.4018 30.2472 13.924C30.6894 14.4461 30.6344 15.2242 30.1161 15.6714C30.0511 15.7276 28.9032 16.7006 26.6324 17.3626C28.3961 18.3756 30.1948 18.9339 32.0746 19.0589C32.7628 19.1051 33.2837 19.7009 33.2375 20.3879C33.1938 21.0349 32.6617 21.5845 31.9072 21.5532ZM29.9612 32.5737C29.243 32.9135 25.5283 29.7995 20.0012 29.927C14.4728 29.8033 10.7593 32.9122 10.0411 32.5737C9.0169 32.3701 12.4094 26.3471 20.0012 26.3546C27.5917 26.3509 30.9854 32.3701 29.9612 32.5737Z" fill="#3E4347"/>
</g>
<defs>
<clipPath id="clip0_82_841">
<rect width="40" height="40" fill="white"/>
</clipPath>
</defs>
</svg>
