<svg width="40" height="40" viewBox="0 0 40 40" fill="none" xmlns="http://www.w3.org/2000/svg">
<g clip-path="url(#clip0_82_903)">
<path d="M20 40C31.0457 40 40 31.0457 40 20C40 8.9543 31.0457 0 20 0C8.9543 0 0 8.9543 0 20C0 31.0457 8.9543 40 20 40Z" fill="#FFD93B"/>
<path d="M19.9996 32.855C14.1509 32.855 9.05464 28.8938 7.60714 23.2238C7.49339 22.7775 7.76214 22.3238 8.20839 22.21C8.65214 22.0938 9.10714 22.365 9.22089 22.8113C10.4809 27.7438 14.9121 31.1888 19.9984 31.1888C25.0846 31.1888 29.5171 27.7438 30.7759 22.8113C30.8884 22.365 31.3421 22.0938 31.7896 22.21C32.2359 22.3238 32.5046 22.7775 32.3909 23.2238C30.9446 28.8938 25.8484 32.855 19.9996 32.855Z" fill="#3E4347"/>
<path d="M40.0004 20C40.0004 31.05 31.0441 40 20.0004 40C13.7129 40 8.10039 37.1 4.43164 32.5563C7.86289 35.3313 12.2316 36.9875 16.9879 36.9875C28.0316 36.9875 36.9879 28.0375 36.9879 16.9875C36.9879 12.2313 35.3316 7.86252 32.5566 4.43127C37.0941 8.10002 40.0004 13.7125 40.0004 20Z" fill="#F4C534"/>
<path d="M13.5416 20.8537C15.2343 20.8537 16.6066 19.2229 16.6066 17.2112C16.6066 15.1995 15.2343 13.5687 13.5416 13.5687C11.8488 13.5687 10.4766 15.1995 10.4766 17.2112C10.4766 19.2229 11.8488 20.8537 13.5416 20.8537Z" fill="#3E4347"/>
<path d="M14.9237 16.4275C14.685 16.615 14.2925 16.5225 14.0412 16.2175C13.79 15.9125 13.7775 15.5038 14.0162 15.3163C14.2537 15.12 14.6475 15.2125 14.8975 15.5175C15.15 15.8313 15.1525 16.2325 14.9237 16.4275Z" fill="#5A5F63"/>
<path d="M26.4625 20.8537C28.1552 20.8537 29.5275 19.2229 29.5275 17.2112C29.5275 15.1995 28.1552 13.5687 26.4625 13.5687C24.7697 13.5687 23.3975 15.1995 23.3975 17.2112C23.3975 19.2229 24.7697 20.8537 26.4625 20.8537Z" fill="#3E4347"/>
<path d="M27.8427 16.4275C27.6039 16.615 27.2114 16.5225 26.9602 16.2175C26.7089 15.9125 26.6964 15.5038 26.9352 15.3163C27.1727 15.12 27.5652 15.2125 27.8164 15.5175C28.0689 15.8313 28.0714 16.2325 27.8427 16.4275Z" fill="#5A5F63"/>
</g>
<defs>
<clipPath id="clip0_82_903">
<rect width="40" height="40" fill="white"/>
</clipPath>
</defs>
</svg>
