<svg width="40" height="40" viewBox="0 0 40 40" fill="none" xmlns="http://www.w3.org/2000/svg">
<g clip-path="url(#clip0_82_893)">
<path d="M20 40C31.0457 40 40 31.0457 40 20C40 8.9543 31.0457 0 20 0C8.9543 0 0 8.9543 0 20C0 31.0457 8.9543 40 20 40Z" fill="#FFD93B"/>
<path d="M40.0004 20C40.0004 31.05 31.0441 40 20.0004 40C13.7129 40 8.10039 37.1 4.43164 32.5563C7.86289 35.3313 12.2316 36.9875 16.9879 36.9875C28.0316 36.9875 36.9879 28.0375 36.9879 16.9875C36.9879 12.2313 35.3316 7.86252 32.5566 4.43127C37.0941 8.10002 40.0004 13.7125 40.0004 20Z" fill="#F4C534"/>
<path d="M27.3575 20.7637C29.091 20.7637 30.4962 19.3584 30.4962 17.625C30.4962 15.8915 29.091 14.4862 27.3575 14.4862C25.624 14.4862 24.2188 15.8915 24.2188 17.625C24.2188 19.3584 25.624 20.7637 27.3575 20.7637Z" fill="#3E4347"/>
<path d="M28.4984 15.6726C28.0188 15.4599 27.5183 15.5392 27.3806 15.8497C27.2429 16.1601 27.5201 16.5843 27.9997 16.797C28.4794 17.0097 28.9798 16.9304 29.1175 16.6199C29.2552 16.3094 28.978 15.8853 28.4984 15.6726Z" fill="#5A5F63"/>
<path d="M12.6427 20.7637C14.3761 20.7637 15.7814 19.3584 15.7814 17.625C15.7814 15.8915 14.3761 14.4862 12.6427 14.4862C10.9092 14.4862 9.50391 15.8915 9.50391 17.625C9.50391 19.3584 10.9092 20.7637 12.6427 20.7637Z" fill="#3E4347"/>
<path d="M13.7816 15.672C13.302 15.4593 12.8015 15.5386 12.6638 15.849C12.5261 16.1595 12.8033 16.5837 13.2829 16.7964C13.7626 17.0091 14.263 16.9298 14.4007 16.6193C14.5384 16.3088 14.2612 15.8847 13.7816 15.672Z" fill="#5A5F63"/>
<path d="M11.8078 27.8951C11.4303 27.5401 11.4128 26.9463 11.7678 26.5701C12.1228 26.1938 12.7153 26.1751 13.0928 26.5301C16.9666 30.1763 23.0341 30.1763 26.9078 26.5301C27.2853 26.1751 27.8778 26.1938 28.2328 26.5701C28.5878 26.9476 28.5703 27.5401 28.1928 27.8951C23.5991 32.2201 16.4016 32.2201 11.8078 27.8951Z" fill="#3E4347"/>
</g>
<defs>
<clipPath id="clip0_82_893">
<rect width="40" height="40" fill="white"/>
</clipPath>
</defs>
</svg>
