<svg width="24" height="24" viewBox="0 0 24 24" fill="none" xmlns="http://www.w3.org/2000/svg">
<g clip-path="url(#clip0_82_1236)">
<path fill-rule="evenodd" clip-rule="evenodd" d="M12.9088 0.580999C12.8288 0.407536 12.7007 0.260629 12.5398 0.15766C12.3789 0.0546912 12.1918 -3.05176e-05 12.0008 -3.05176e-05C11.8098 -3.05176e-05 11.6227 0.0546912 11.4618 0.15766C11.3009 0.260629 11.1728 0.407536 11.0928 0.580999L8.2228 6.801L1.4218 7.608C1.23205 7.6304 1.05269 7.7067 0.904952 7.82786C0.757211 7.94902 0.647271 8.10996 0.588146 8.29165C0.52902 8.47334 0.523184 8.66817 0.571328 8.85307C0.619471 9.03797 0.719579 9.20521 0.859804 9.335L5.8898 13.985L4.5548 20.705C4.51772 20.8923 4.53506 21.0864 4.60475 21.2641C4.67444 21.4419 4.79359 21.596 4.94809 21.7083C5.10259 21.8205 5.286 21.8861 5.47663 21.8974C5.66725 21.9087 5.85713 21.8652 6.0238 21.772L12.0008 18.426L17.9778 21.772C18.1446 21.8656 18.3347 21.9094 18.5256 21.8982C18.7165 21.887 18.9002 21.8214 19.055 21.709C19.2097 21.5965 19.3289 21.4421 19.3986 21.264C19.4682 21.0859 19.4853 20.8915 19.4478 20.704L18.1128 13.986L23.1418 9.335C23.282 9.20521 23.3821 9.03797 23.4303 8.85307C23.4784 8.66817 23.4726 8.47334 23.4135 8.29165C23.3543 8.10996 23.2444 7.94902 23.0967 7.82786C22.9489 7.7067 22.7696 7.6304 22.5798 7.608L15.7778 6.8L12.9088 0.580999Z" fill="#E8BB33"/>
</g>
<defs>
<clipPath id="clip0_82_1236">
<rect width="24" height="24" fill="white"/>
</clipPath>
</defs>
</svg>
