<svg width="274" height="235" viewBox="0 0 274 235" fill="none" xmlns="http://www.w3.org/2000/svg">
<path d="M230.34 117.876C230.34 84.17 212.482 54.5745 185.766 38.0898C182.137 44.0261 178.508 49.9651 174.879 55.9014C195.63 68.7074 209.5 91.6963 209.5 117.876C209.5 144.056 195.63 167.045 174.879 179.851C178.508 185.793 182.137 191.726 185.766 197.668C212.482 181.172 230.34 151.582 230.34 117.876Z" fill="#EDF9FF"/>
<path d="M99.1229 55.9014C95.494 49.9596 91.8624 44.0261 88.2362 38.0898C61.5194 54.5745 43.6621 84.17 43.6621 117.876C43.6621 151.582 61.5194 181.178 88.2362 197.668C91.8624 191.732 95.4968 185.793 99.1229 179.851C78.3714 167.045 64.502 144.056 64.502 117.876C64.502 91.6963 78.3714 68.7074 99.1229 55.9014Z" fill="#EDF9FF"/>
<path d="M208.583 0.760025C204.951 6.70183 201.32 12.6409 197.694 18.5827C230.939 39.0978 253.16 75.9314 253.16 117.876C253.16 159.823 230.939 196.651 197.691 217.172C201.32 223.116 204.951 229.053 208.58 235C247.794 210.792 274 167.349 274 117.876C274 68.4052 247.794 24.9594 208.583 0.760025Z" fill="#EDF9FF"/>
<path d="M20.8372 117.876C20.8372 75.9293 43.0607 39.0984 76.3117 18.5805C72.6773 12.6414 69.0484 6.69966 65.4195 0.76062C26.2032 24.96 0 68.4057 0 117.876C0 167.347 26.2032 210.798 65.4195 234.998C69.0484 229.059 72.6773 223.117 76.3117 217.178C43.0607 196.654 20.8372 159.824 20.8372 117.876Z" fill="#EDF9FF"/>
<path d="M188.846 117.877C188.846 146.6 165.637 169.88 137 169.88C108.367 169.88 85.1548 146.6 85.1548 117.877C85.1548 89.1598 108.367 65.8746 137 65.8746C165.637 65.8746 188.846 89.1598 188.846 117.877Z" fill="#EDF9FF"/>
</svg>
