<svg width="54" height="46" viewBox="0 0 54 46" fill="none" xmlns="http://www.w3.org/2000/svg">
<g clip-path="url(#clip0_24_264)">
<path d="M45.3835 23.1808C45.3835 16.5174 41.8533 10.6666 36.5716 7.40772C35.8542 8.58126 35.1368 9.75536 34.4194 10.9289C38.5218 13.4606 41.2637 18.0052 41.2637 23.1808C41.2637 28.3563 38.5218 32.901 34.4194 35.4327C35.1368 36.6073 35.8542 37.7803 36.5716 38.955C41.8533 35.6939 45.3835 29.8442 45.3835 23.1808Z" fill="#274C77"/>
<path d="M19.4431 10.9289C18.7257 9.75426 18.0078 8.58126 17.2909 7.40772C12.0092 10.6666 8.479 16.5174 8.479 23.1808C8.479 29.8442 12.0092 35.695 17.2909 38.955C18.0078 37.7814 18.7263 36.6073 19.4431 35.4327C15.3407 32.901 12.5989 28.3563 12.5989 23.1808C12.5989 18.0052 15.3407 13.4606 19.4431 10.9289Z" fill="#274C77"/>
<path d="M41.0825 0.0278702C40.3645 1.20251 39.6466 2.37661 38.9297 3.55125C45.5021 7.60692 49.895 14.8886 49.895 23.1807C49.895 31.4733 45.5021 38.7538 38.9292 42.8106C39.6466 43.9858 40.3645 45.1593 41.0819 46.3351C48.8341 41.5494 54.0148 32.9611 54.0148 23.1807C54.0148 13.4007 48.8341 4.81187 41.0825 0.0278702Z" fill="#274C77"/>
<path d="M3.96698 23.1807C3.96698 14.8881 8.36038 7.60698 14.9338 3.55076C14.2153 2.37667 13.4979 1.20203 12.7805 0.0279312C5.02779 4.81193 -0.152344 13.4008 -0.152344 23.1807C-0.152344 32.9606 5.02779 41.5506 12.7805 46.3346C13.4979 45.1605 14.2153 43.9859 14.9338 42.8118C8.36038 38.7545 3.96698 31.4733 3.96698 23.1807Z" fill="#274C77"/>
<path d="M37.181 23.1809C37.181 28.8591 32.5927 33.4613 26.9316 33.4613C21.271 33.4613 16.6821 28.8591 16.6821 23.1809C16.6821 17.5037 21.271 12.9004 26.9316 12.9004C32.5927 12.9004 37.181 17.5037 37.181 23.1809Z" fill="#3369E8"/>
<mask id="mask0_24_264" style="mask-type:luminance" maskUnits="userSpaceOnUse" x="17" y="13" width="19" height="16">
<path d="M17.644 23.1808C17.644 25.1949 18.2872 27.0525 19.3699 28.5759L35.3711 19.3102C33.9046 16.1001 30.6817 13.8663 26.931 13.8663C21.8021 13.8663 17.644 18.0364 17.644 23.1808Z" fill="white"/>
</mask>
<g mask="url(#mask0_24_264)">
<mask id="mask1_24_264" style="mask-type:luminance" maskUnits="userSpaceOnUse" x="-18023" y="-17780" width="35781" height="35888">
<path d="M-18022.5 -17780H17757.5V18107.7H-18022.5V-17780Z" fill="url(#paint0_linear_24_264)"/>
</mask>
<g mask="url(#mask1_24_264)">
<path d="M17.6445 23.181C17.6445 25.1952 18.2877 27.0527 19.3703 28.5762L35.3716 19.3105C33.9051 16.1003 30.6822 13.8666 26.9314 13.8666C21.8026 13.8666 17.6445 18.0367 17.6445 23.181Z" fill="url(#paint1_linear_24_264)"/>
</g>
</g>
</g>
<defs>
<linearGradient id="paint0_linear_24_264" x1="28.9026" y1="27.2887" x2="18.1016" y2="4.91976" gradientUnits="userSpaceOnUse">
<stop stop-color="white" stop-opacity="0"/>
<stop offset="1" stop-color="white"/>
</linearGradient>
<linearGradient id="paint1_linear_24_264" x1="28.9013" y1="27.2877" x2="18.1004" y2="4.91878" gradientUnits="userSpaceOnUse">
<stop stop-color="white"/>
<stop offset="1" stop-color="white"/>
</linearGradient>
<clipPath id="clip0_24_264">
<rect width="54" height="46" fill="white"/>
</clipPath>
</defs>
</svg>
