<?xml version="1.0" encoding="UTF-8" standalone="no"?>
<!DOCTYPE svg PUBLIC "-//W3C//DTD SVG 1.1//EN" "http://www.w3.org/Graphics/SVG/1.1/DTD/svg11.dtd">
<svg width="100%" height="100%" viewBox="0 0 512 512" version="1.1" xmlns="http://www.w3.org/2000/svg" xmlns:xlink="http://www.w3.org/1999/xlink" xml:space="preserve" xmlns:serif="http://www.serif.com/" style="fill-rule:evenodd;clip-rule:evenodd;stroke-linejoin:round;stroke-miterlimit:2;fill:white;">
    <g transform="matrix(1,0,0,1,0,-558)">
        <g id="Artboard1" transform="matrix(0.256,0,0,0.256,0,558)">
            <rect x="0" y="0" width="2000" height="2000" style="fill:none;"/>
            <clipPath id="_clip1">
                <rect x="0" y="0" width="2000" height="2000"/>
            </clipPath>
            <g clip-path="url(#_clip1)">
                <g transform="matrix(4.75059,0,0,4.75059,-13734,-370.546)">
                    <path d="M3312,141.15L3312,435.85C3312,470.703 3283.7,499 3248.85,499L2954.15,499C2919.3,499 2891,470.703 2891,435.85L2891,141.15C2891,106.297 2919.3,78 2954.15,78L3248.85,78C3283.7,78 3312,106.297 3312,141.15ZM3232.8,199.851C3234.81,190.976 3225.34,183.561 3216.18,186.766L3211.82,188.321L2975.53,273.454C2972.24,274.493 2969.98,277.571 2969.98,281.028C2969.98,284.748 2972.59,287.994 2976.23,288.787L3037.39,305.531L3060.21,372.509C3061.86,376.617 3065.87,379.324 3070.29,379.324C3073.05,379.324 3075.71,378.272 3077.72,376.384L3109.32,346.507L3171.37,388.607C3178.95,393.798 3189.77,389.947 3191.7,381.431L3232.8,199.851ZM3186.01,227.144L3079.25,314.406L3074.23,318.52C3073.13,319.395 3072.41,320.665 3072.22,322.06L3071.1,331.342L3068.01,357.415C3068.01,357.451 3068.02,357.487 3068.02,357.522C3068.02,358.181 3067.47,358.723 3066.82,358.723C3066.2,358.723 3065.68,358.246 3065.62,357.63L3056.94,331.557L3047.97,304.886C3047.18,302.429 3048.27,299.736 3050.55,298.523L3161.64,234.846L3182.54,222.886C3185.58,221.116 3188.69,224.943 3186.01,227.144Z"/>
                </g>
            </g>
        </g>
    </g>
</svg>
