<svg xmlns="http://www.w3.org/2000/svg" viewBox="0 0 24 24" width="24" height="24" fill="currentColor">
  <path d="M7.5 2.5a1 1 0 0 1 1.5 1.3 7 7 0 0 1 6 0 1 1 0 1 1 1.5-1.3 1 1 0 0 1 .3 1.3l-1 1.7a7.1 7.1 0 0 1 1.2 2.5H20a1 1 0 1 1 0 2h-1.5c.3.6.5 1.3.5 2h1a1 1 0 1 1 0 2h-1a6.7 6.7 0 0 1-.5 2h1.5a1 1 0 1 1 0 2h-2.2a6.5 6.5 0 0 1-2.4 2.3L18 21.5a1 1 0 1 1-1 1.7l-2.5-1.6a6.7 6.7 0 0 1-5 0L7 23.2a1 1 0 1 1-1-1.7l2.7-1.7a6.5 6.5 0 0 1-2.4-2.3H4a1 1 0 1 1 0-2h1.5c-.3-.7-.5-1.3-.5-2h-1a1 1 0 1 1 0-2h1c0-.7.2-1.4.5-2H4a1 1 0 1 1 0-2h3.5a7.1 7.1 0 0 1 1.2-2.5l-1-1.7a1 1 0 0 1 .3-1.3ZM9 10a3 3 0 1 0 6 0H9Z"/>
</svg>
